<?xml version="1.0" standalone="no"?>
<!DOCTYPE svg PUBLIC "-//W3C//DTD SVG 20010904//EN"
 "http://www.w3.org/TR/2001/REC-SVG-20010904/DTD/svg10.dtd">
<svg version="1.0" xmlns="http://www.w3.org/2000/svg"
 width="1024.000000pt" height="1024.000000pt" viewBox="0 0 1024.000000 1024.000000"
 preserveAspectRatio="xMidYMid meet">

<g transform="translate(0.000000,1024.000000) scale(0.100000,-0.100000)"
fill="#000000" stroke="none">
<path d="M0 5120 l0 -5120 5120 0 5120 0 0 5120 0 5120 -5120 0 -5120 0 0
-5120z m3730 646 l0 -173 46 -7 c26 -3 224 -6 440 -6 l394 0 0 -140 0 -140
-440 0 -440 0 0 -105 0 -105 280 0 280 0 0 -140 0 -140 -280 0 -280 0 0 -290
0 -291 -137 3 -138 3 0 745 c0 802 -2 774 52 848 14 18 42 44 63 57 35 22 118
53 148 54 9 1 12 -40 12 -173z m1412 -458 l3 -603 28 -57 c71 -144 232 -195
407 -129 30 11 57 17 60 12 3 -5 4 -68 2 -139 l-3 -130 -40 -16 c-126 -51
-312 -40 -444 26 -115 58 -215 170 -264 297 l-26 66 -3 638 -3 637 140 0 140
0 3 -602z m1498 234 c100 -33 187 -89 275 -177 143 -143 202 -313 183 -533
-13 -156 -74 -288 -183 -398 -137 -138 -257 -194 -435 -201 -135 -6 -228 13
-340 69 -173 87 -320 278 -350 459 -17 100 -8 276 19 351 68 194 149 286 336
381 64 32 139 58 205 71 60 11 226 -2 290 -22z"/>
<path d="M6360 5277 c-122 -28 -228 -116 -272 -225 -18 -46 -22 -77 -23 -157
0 -91 3 -106 29 -160 41 -83 126 -166 201 -196 89 -35 228 -34 305 2 143 68
249 266 222 417 -16 92 -55 163 -122 225 -93 87 -219 121 -340 94z"/>
</g>
</svg>
